<?xml version="1.0" encoding="UTF-8"?>
<svg width="612px" height="612px" viewBox="0 0 612 612" version="1.1" xmlns="http://www.w3.org/2000/svg" xmlns:xlink="http://www.w3.org/1999/xlink">
    <title>yqwwelfarefish</title>
	<circle cx="306" cy="306" r="302" stroke="rgb(170,30,30)" stroke-width="6" fill-opacity="0.0"/>
	<g transform="translate(0,0)rotate(0)"><!-- 方形花边 -->
		<rect x="95" y="95" width="60" height="60" fill-opacity="0.0" stroke-width="6" stroke="rgb(170,30,30)"/>
		<rect x="55" y="55" width="60" height="60" fill-opacity="0.0" stroke-width="6" stroke="rgb(170,30,30)"/>
		<rect x="55" y="135" width="60" height="60" fill-opacity="0.0" stroke-width="6" stroke="rgb(170,30,30)"/>
		<rect x="135" y="55" width="60" height="60" fill-opacity="0.0" stroke-width="6" stroke="rgb(170,30,30)"/>
		<rect x="135" y="135" width="60" height="60" fill-opacity="0.0" stroke-width="6" stroke="rgb(170,30,30)"/>
		
		<rect x="457" y="95" width="60" height="60" fill-opacity="0.0" stroke-width="6" stroke="rgb(170,30,30)"/>
		<rect x="417" y="55" width="60" height="60" fill-opacity="0.0" stroke-width="6" stroke="rgb(170,30,30)"/>
		<rect x="417" y="135" width="60" height="60" fill-opacity="0.0" stroke-width="6" stroke="rgb(170,30,30)"/>
		<rect x="497" y="55" width="60" height="60" fill-opacity="0.0" stroke-width="6" stroke="rgb(170,30,30)"/>
		<rect x="497" y="135" width="60" height="60" fill-opacity="0.0" stroke-width="6" stroke="rgb(170,30,30)"/>
		
		<rect x="95" y="457" width="60" height="60" fill-opacity="0.0" stroke-width="6" stroke="rgb(170,30,30)"/>
		<rect x="55" y="417" width="60" height="60" fill-opacity="0.0" stroke-width="6" stroke="rgb(170,30,30)"/>
		<rect x="55" y="497" width="60" height="60" fill-opacity="0.0" stroke-width="6" stroke="rgb(170,30,30)"/>
		<rect x="135" y="417" width="60" height="60" fill-opacity="0.0" stroke-width="6" stroke="rgb(170,30,30)"/>
		<rect x="135" y="497" width="60" height="60" fill-opacity="0.0" stroke-width="6" stroke="rgb(170,30,30)"/>
		
		<rect x="457" y="457" width="60" height="60" fill-opacity="0.0" stroke-width="6" stroke="rgb(170,30,30)"/>
		<rect x="417" y="417" width="60" height="60" fill-opacity="0.0" stroke-width="6" stroke="rgb(170,30,30)"/>
		<rect x="417" y="497" width="60" height="60" fill-opacity="0.0" stroke-width="6" stroke="rgb(170,30,30)"/>
		<rect x="497" y="417" width="60" height="60" fill-opacity="0.0" stroke-width="6" stroke="rgb(170,30,30)"/>
		<rect x="497" y="497" width="60" height="60" fill-opacity="0.0" stroke-width="6" stroke="rgb(170,30,30)"/>
	</g>
	<g><!-- 圆形花边 -->
		<circle cx="243" cy="50" r="35" fill-opacity="0.0" stroke="rgb(170,30,30)" stroke-width="6"/>
		<circle cx="367" cy="50" r="35" fill-opacity="0.0" stroke="rgb(170,30,30)" stroke-width="6"/>
		<circle cx="306" cy="76" r="70" fill-opacity="0.0" stroke="rgb(170,30,30)" stroke-width="6"/>
		
		<circle cx="243" cy="562" r="35" fill-opacity="0.0" stroke="rgb(170,30,30)" stroke-width="6"/>
		<circle cx="367" cy="562" r="35" fill-opacity="0.0" stroke="rgb(170,30,30)" stroke-width="6"/>
		<circle cx="306" cy="537" r="70" fill-opacity="0.0" stroke="rgb(170,30,30)" stroke-width="6"/>
		
		<circle cx="78" cy="306" r="70" fill-opacity="0.0" stroke="rgb(170,30,30)" stroke-width="6"/>
		<circle cx="534" cy="306" r="70" fill-opacity="0.0" stroke="rgb(170,30,30)" stroke-width="6"/>
	</g>
	<defs><!-- 渐变-放射性 -->
		<radialGradient id="grad1" cx="50%" cy="50%" r="40%" fx="50%" fy="50%">
			<stop offset="66%" style="stop-color:rgb(255,0,0);stop-opacity:0.85" />
			<stop offset="100%" style="stop-color:rgb(170,30,30);stop-opacity:1" />
		</radialGradient>
	</defs>
	<g transform="translate(306,9)rotate(45)">
		<rect x="0" y="0" width="420" height="420" fill="url(#grad1)" stroke-width="5" stroke="rgb(170,30,30)"/>
	</g>
	<g transform="translate(178,386)rotate(0)">
		<text x="0" y="0" font-size="253" style="fill:rgb(0,0,0);stroke-width:3;stroke:rgb(255,255,0)">福</text>
	</g>
	<g transform="translate(296,153)rotate(0)">
		<text x="0" y="0" font-size="6" style="fill:rgb(170,30,30);stroke-width:1;stroke:rgb(170,30,30)">fish</text>
	</g>
	<g transform="translate(236,156)rotate(0)">
		<text x="0" y="0" font-size="66" style="fill:rgb(255,255,0);stroke-width:1;stroke:rgb(111,111,0)">鱼</text>
	</g>
	<g transform="translate(147,308)rotate(0)">
		<text x="0" y="0" font-size="6" style="fill:rgb(170,30,30);stroke-width:1;stroke:rgb(170,30,30)">q</text>
	</g>
	<g transform="translate(308,156)rotate(0)">
		<text x="0" y="0" font-size="66" style="fill:rgb(255,255,0);stroke-width:1;stroke:rgb(111,111,0)">跃</text>
	</g>
	<g transform="translate(462,308)rotate(0)">
		<text x="0" y="0" font-size="6" style="fill:rgb(170,30,30);stroke-width:1;stroke:rgb(170,30,30)">w</text>
	</g>
	<g transform="translate(278,482)rotate(0)">
		<text x="0" y="0" font-size="55" style="fill:rgb(255,255,0);stroke-width:1;stroke:rgb(111,111,0)">迎</text>
	</g>
	<g transform="translate(304,463)rotate(0)">
		<text x="0" y="0" font-size="6" style="fill:rgb(170,30,30);stroke-width:1;stroke:rgb(170,30,30)">y</text>
	</g>
	<g transform="translate(278,547)rotate(0)">
		<text x="0" y="0" font-size="55" style="fill:rgb(255,255,0);stroke-width:1;stroke:rgb(111,111,0)">门</text>
	</g>
</svg>